<svg xmlns="http://www.w3.org/2000/svg" class="ionicon">
<symbol id="globe" viewBox="0 0 512 512">
<title>Globe</title>
<path d="M256 48C141.13 48 48 141.13 48 256s93.13 208 208 208 208-93.13 208-208S370.87 48 256 48z" fill="none" stroke="currentColor" stroke-miterlimit="10" stroke-width="32"/><path d="M256 48c-58.07 0-112.67 93.13-112.67 208S197.93 464 256 464s112.67-93.13 112.67-208S314.07 48 256 48z" fill="none" stroke="currentColor" stroke-miterlimit="10" stroke-width="32"/><path d="M117.33 117.33c38.24 27.15 86.38 43.34 138.67 43.34s100.43-16.19 138.67-43.34M394.67 394.67c-38.24-27.15-86.38-43.34-138.67-43.34s-100.43 16.19-138.67 43.34" fill="none" stroke="currentColor" stroke-linecap="round" stroke-linejoin="round" stroke-width="32"/><path fill="none" stroke="currentColor" stroke-miterlimit="10" stroke-width="32" d="M256 48v416M464 256H48"/>
</symbol>

<symbol id="leaf" viewBox="0 0 512 512">
<title>Leaf</title>
<path d="M321.89 171.42C233 114 141 155.22 56 65.22c-19.8-21-8.3 235.5 98.1 332.7 77.79 71 197.9 63.08 238.4-5.92s18.28-163.17-70.61-220.58zM173 253c86 81 175 129 292 147" fill="none" stroke="currentColor" stroke-linecap="round" stroke-linejoin="round" stroke-width="32"/>
</symbol>

<symbol id="map" viewBox="0 0 512 512">
<title>Map</title>
<path d="M313.27 124.64L198.73 51.36a32 32 0 00-29.28.35L56.51 127.49A16 16 0 0048 141.63v295.8a16 16 0 0023.49 14.14l97.82-63.79a32 32 0 0129.5-.24l111.86 73a32 32 0 0029.27-.11l115.43-75.94a16 16 0 008.63-14.2V74.57a16 16 0 00-23.49-14.14l-98 63.86a32 32 0 01-29.24.35zM328 128v336M184 48v336" fill="none" stroke="currentColor" stroke-linecap="round" stroke-linejoin="round" stroke-width="32"/>
</symbol>

<symbol id="bonfire" viewBox="0 0 512 512">
<title>Bonfire</title>
<path d="M273.38 368.33c-.81-9.23-8.86-16.44-18.55-16.44a18.63 18.63 0 00-18.2 14.11l-18.2 88.38a35.75 35.75 0 00-.93 7.88c0 19.93 16.68 33.78 37.33 33.78s37.34-13.85 37.34-33.78a36.16 36.16 0 00-1.29-9.45zM411.05 407.86a41.78 41.78 0 00-5.95-4.35l-69.53-48.59c-6.77-4.25-14-4.13-19.25 1a13.53 13.53 0 00-2 17.2l52.5 69a36.57 36.57 0 004 4.69c9.1 10.17 29.28 10.73 40.37 0 10.94-10.91 10.81-30.35-.14-38.95zM463.3 335.88h-70.42c-4.55 0-8.88 3.35-8.88 8.16s2.95 7.85 6.92 9.16l66.43 20.55C467 376 480 367.4 480 356.66c0-13.66-7.6-20.78-16.7-20.78zM128.22 344c0-5-4.55-8.16-9.45-8.16H48.35c-8.87 0-16.35 9.58-16.35 20.32S44.62 376 54.3 373.75l67.43-20.55c4.39-1.31 6.49-4.2 6.49-9.2zM176.55 355L107 403.38a32.34 32.34 0 00-6 4.35 26.33 26.33 0 000 38.56 29.39 29.39 0 0040.36 0 30.75 30.75 0 004-4.68L197.9 373c3.5-5.58 2.92-12.49-2-17.06a15 15 0 00-19.35-.94z" fill="currentColor"/>
<path d="M368 125.09c0-55.7-49.22-89.16-94.2-93.06a8 8 0 00-8.69 7.71c-3.12 76-109.38 110.69-119.87 178.68-7 45.4 16.65 72.37 34.31 85.78a15.94 15.94 0 0023.93-5.62c22.5-45.86 74.33-63.49 109.72-85.94 42.88-27.2 54.8-56.44 54.8-87.55z" fill="none" stroke="currentColor" stroke-linecap="round" stroke-miterlimit="10" stroke-width="32"/>
<path d="M240 95.7c-12.82-23-30.51-31-59.16-31.63a3.86 3.86 0 00-4.06 3.51c-.95 34.22-32.78 44.85-32.78 73.15 0 19.37 5.39 29 17.16 39.28M352.45 178.76c8.6 14.31 15.55 30.08 15.55 48 0 52.52-42.47 93.1-94.86 93.1a94.42 94.42 0 01-65.14-26" fill="none" stroke="currentColor" stroke-linecap="round" stroke-miterlimit="10" stroke-width="32"/>
</symbol>

<symbol id="calendar" viewBox="0 0 512 512">
<title>Calendar Clear</title>
<rect fill="none" stroke="currentColor" stroke-linejoin="round" stroke-width="32" x="48" y="80" width="416" height="384" rx="48"/><path fill="none" stroke="currentColor" stroke-linejoin="round" stroke-width="32" stroke-linecap="round" d="M128 48v32M384 48v32M464 160H48"/>
</symbol>

<symbol id="flag" viewBox="0 0 512 512">
<title>Flag</title>
<path d="M80 464V68.14a8 8 0 014-6.9C91.81 56.66 112.92 48 160 48c64 0 145 48 192 48a199.53 199.53 0 0077.23-15.77 2 2 0 012.77 1.85v219.36a4 4 0 01-2.39 3.65C421.37 308.7 392.33 320 352 320c-48 0-128-32-192-32s-80 16-80 16" fill="none" stroke="currentColor" stroke-linecap="round" stroke-miterlimit="10" stroke-width="32"/>
</symbol>

<symbol id="people" viewBox="0 0 512 512">
<title>People</title>
<path d="M402 168c-2.93 40.67-33.1 72-66 72s-63.12-31.32-66-72c-3-42.31 26.37-72 66-72s69 30.46 66 72z" fill="none" stroke="currentColor" stroke-linecap="round" stroke-linejoin="round" stroke-width="32"/><path d="M336 304c-65.17 0-127.84 32.37-143.54 95.41-2.08 8.34 3.15 16.59 11.72 16.59h263.65c8.57 0 13.77-8.25 11.72-16.59C463.85 335.36 401.18 304 336 304z" fill="none" stroke="currentColor" stroke-miterlimit="10" stroke-width="32"/><path d="M200 185.94c-2.34 32.48-26.72 58.06-53 58.06s-50.7-25.57-53-58.06C91.61 152.15 115.34 128 147 128s55.39 24.77 53 57.94z" fill="none" stroke="currentColor" stroke-linecap="round" stroke-linejoin="round" stroke-width="32"/><path d="M206 306c-18.05-8.27-37.93-11.45-59-11.45-52 0-102.1 25.85-114.65 76.2-1.65 6.66 2.53 13.25 9.37 13.25H154" fill="none" stroke="currentColor" stroke-linecap="round" stroke-miterlimit="10" stroke-width="32"/>
</symbol>

<symbol id="star" viewBox="0 0 512 512">
<title>Star</title>
<path d="M480 208H308L256 48l-52 160H32l140 96-54 160 138-100 138 100-54-160z" fill="none" stroke="currentColor" stroke-linejoin="round" stroke-width="32"/>
</symbol>

<symbol id="star-i" viewBox="0 0 512 512">
<title>Star</title>
<path d="M480 208H308L256 48l-52 160H32l140 96-54 160 138-100 138 100-54-160z" stroke="currentColor" stroke-linejoin="round" stroke-width="32"/>
</symbol>

<symbol id="star-full" viewBox="0 0 512 512">
<title>Star Full</title>
<path d="M394 480a16 16 0 01-9.39-3L256 383.76 127.39 477a16 16 0 01-24.55-18.08L153 310.35 23 221.2a16 16 0 019-29.2h160.38l48.4-148.95a16 16 0 0130.44 0l48.4 149H480a16 16 0 019.05 29.2L359 310.35l50.13 148.53A16 16 0 01394 480z" fill="currentColor"/>
</symbol>

<symbol id="star-half" viewBox="0 0 512 512">
<title>Star Half</title>
<path d="M480 208H308L256 48l-52 160H32l140 96-54 160 138-100 138 100-54-160z" fill="none" stroke="currentColor" stroke-linejoin="round" stroke-width="32"/>
<path d="M256 48v316L118 464l54-160-140-96h172l52-160z" fill="currentColor"/>
</symbol>

<symbol id="facebook" viewBox="0 0 512 512">
<title>Logo Facebook</title>
<path d="M480 257.35c0-123.7-100.3-224-224-224s-224 100.3-224 224c0 111.8 81.9 204.47 189 221.29V322.12h-56.89v-64.77H221V208c0-56.13 33.45-87.16 84.61-87.16 24.51 0 50.15 4.38 50.15 4.38v55.13H327.5c-27.81 0-36.51 17.26-36.51 35v42h62.12l-9.92 64.77H291v156.54c107.1-16.81 189-109.48 189-221.31z" fill="currentColor" fill-rule="evenodd"/>
</symbol>

<symbol id="twitter" viewBox="0 0 512 512">
<title>Logo Twitter</title>
<path d="M496 109.5a201.8 201.8 0 01-56.55 15.3 97.51 97.51 0 0043.33-53.6 197.74 197.74 0 01-62.56 23.5A99.14 99.14 0 00348.31 64c-54.42 0-98.46 43.4-98.46 96.9a93.21 93.21 0 002.54 22.1 280.7 280.7 0 01-203-101.3A95.69 95.69 0 0036 130.4c0 33.6 17.53 63.3 44 80.7A97.5 97.5 0 0135.22 199v1.2c0 47 34 86.1 79 95a100.76 100.76 0 01-25.94 3.4 94.38 94.38 0 01-18.51-1.8c12.51 38.5 48.92 66.5 92.05 67.3A199.59 199.59 0 0139.5 405.6a203 203 0 01-23.5-1.4A278.68 278.68 0 00166.74 448c181.36 0 280.44-147.7 280.44-275.8 0-4.2-.11-8.4-.31-12.5A198.48 198.48 0 00496 109.5z" fill="currentColor"/>
</symbol>

<symbol id="instagram" viewBox="0 0 512 512">
<title>Logo Instagram</title>
<path d="M349.33 69.33a93.62 93.62 0 0193.34 93.34v186.66a93.62 93.62 0 01-93.34 93.34H162.67a93.62 93.62 0 01-93.34-93.34V162.67a93.62 93.62 0 0193.34-93.34h186.66m0-37.33H162.67C90.8 32 32 90.8 32 162.67v186.66C32 421.2 90.8 480 162.67 480h186.66C421.2 480 480 421.2 480 349.33V162.67C480 90.8 421.2 32 349.33 32z" fill="currentColor"/><path d="M377.33 162.67a28 28 0 1128-28 27.94 27.94 0 01-28 28zM256 181.33A74.67 74.67 0 11181.33 256 74.75 74.75 0 01256 181.33m0-37.33a112 112 0 10112 112 112 112 0 00-112-112z" fill="currentColor"/>
</symbol>

<symbol id="time" viewBox="0 0 512 512">
<title>Time</title>
<path d="M256 64C150 64 64 150 64 256s86 192 192 192 192-86 192-192S362 64 256 64z" fill="none" stroke="currentColor" stroke-miterlimit="10" stroke-width="32"/><path fill="none" stroke="currentColor" stroke-linecap="round" stroke-linejoin="round" stroke-width="32" d="M256 128v144h96"/>
</symbol>

<symbol id="card" viewBox="0 0 512 512">
<title>Card</title>
<rect x="48" y="96" width="416" height="320" rx="56" ry="56" fill="none" stroke="currentColor" stroke-linecap="round" stroke-linejoin="round" stroke-width="32"/><path fill="none" stroke="currentColor" stroke-linejoin="round" stroke-width="60" d="M48 192h416M128 300h48v20h-48z"/>
</symbol>

<symbol id="settings" viewBox="0 0 512 512">
<title>Settings</title>
<path d="M262.29 192.31a64 64 0 1057.4 57.4 64.13 64.13 0 00-57.4-57.4zM416.39 256a154.34 154.34 0 01-1.53 20.79l45.21 35.46a10.81 10.81 0 012.45 13.75l-42.77 74a10.81 10.81 0 01-13.14 4.59l-44.9-18.08a16.11 16.11 0 00-15.17 1.75A164.48 164.48 0 01325 400.8a15.94 15.94 0 00-8.82 12.14l-6.73 47.89a11.08 11.08 0 01-10.68 9.17h-85.54a11.11 11.11 0 01-10.69-8.87l-6.72-47.82a16.07 16.07 0 00-9-12.22 155.3 155.3 0 01-21.46-12.57 16 16 0 00-15.11-1.71l-44.89 18.07a10.81 10.81 0 01-13.14-4.58l-42.77-74a10.8 10.8 0 012.45-13.75l38.21-30a16.05 16.05 0 006-14.08c-.36-4.17-.58-8.33-.58-12.5s.21-8.27.58-12.35a16 16 0 00-6.07-13.94l-38.19-30A10.81 10.81 0 0149.48 186l42.77-74a10.81 10.81 0 0113.14-4.59l44.9 18.08a16.11 16.11 0 0015.17-1.75A164.48 164.48 0 01187 111.2a15.94 15.94 0 008.82-12.14l6.73-47.89A11.08 11.08 0 01213.23 42h85.54a11.11 11.11 0 0110.69 8.87l6.72 47.82a16.07 16.07 0 009 12.22 155.3 155.3 0 0121.46 12.57 16 16 0 0015.11 1.71l44.89-18.07a10.81 10.81 0 0113.14 4.58l42.77 74a10.8 10.8 0 01-2.45 13.75l-38.21 30a16.05 16.05 0 00-6.05 14.08c.33 4.14.55 8.3.55 12.47z" fill="none" stroke="currentColor" stroke-linecap="round" stroke-linejoin="round" stroke-width="32"/>
</symbol>

<symbol id="menu" viewBox="0 0 512 512">
<title>Menu</title>
<path fill="none" stroke="currentColor" stroke-linecap="round" stroke-miterlimit="10" stroke-width="32" d="M80 160h352M80 256h352M80 352h352"/>
</symbol>

<symbol id="bed" viewBox="0 0 512 512">
<title>Bed</title>
<path d="M384 240H96V136a40.12 40.12 0 0140-40h240a40.12 40.12 0 0140 40v104zM48 416V304a64.19 64.19 0 0164-64h288a64.19 64.19 0 0164 64v112" fill="none" stroke="currentColor" stroke-linecap="round" stroke-linejoin="round" stroke-width="32"/>
<path d="M48 416v-8a24.07 24.07 0 0124-24h368a24.07 24.07 0 0124 24v8M112 240v-16a32.09 32.09 0 0132-32h80a32.09 32.09 0 0132 32v16M256 240v-16a32.09 32.09 0 0132-32h80a32.09 32.09 0 0132 32v16" fill="none" stroke="currentColor" stroke-linecap="round" stroke-linejoin="round" stroke-width="32"/>
</symbol>

<symbol id="login" viewBox="0 0 512 512">
<title>Log In</title>
<path d="M192 176v-40a40 40 0 0140-40h160a40 40 0 0140 40v240a40 40 0 01-40 40H240c-22.09 0-48-17.91-48-40v-40" fill="none" stroke="currentColor" stroke-linecap="round" stroke-linejoin="round" stroke-width="32"/><path fill="none" stroke="currentColor" stroke-linecap="round" stroke-linejoin="round" stroke-width="32" d="M288 336l80-80-80-80M80 256h272"/>
</symbol>

<symbol id="logout" viewBox="0 0 512 512">
<title>Log Out</title>
<path d="M304 336v40a40 40 0 01-40 40H104a40 40 0 01-40-40V136a40 40 0 0140-40h152c22.09 0 48 17.91 48 40v40M368 336l80-80-80-80M176 256h256" fill="none" stroke="currentColor" stroke-linecap="round" stroke-linejoin="round" stroke-width="32"/>
</symbol>

<symbol id="profile" viewBox="0 0 512 512">
<title>Profile</title>
<path d="M258.9 48C141.92 46.42 46.42 141.92 48 258.9c1.56 112.19 92.91 203.54 205.1 205.1 117 1.6 212.48-93.9 210.88-210.88C462.44 140.91 371.09 49.56 258.9 48zm126.42 327.25a4 4 0 01-6.14-.32 124.27 124.27 0 00-32.35-29.59C321.37 329 289.11 320 256 320s-65.37 9-90.83 25.34a124.24 124.24 0 00-32.35 29.58 4 4 0 01-6.14.32A175.32 175.32 0 0180 259c-1.63-97.31 78.22-178.76 175.57-179S432 158.81 432 256a175.32 175.32 0 01-46.68 119.25z" fill="currentColor"/>
<path d="M256 144c-19.72 0-37.55 7.39-50.22 20.82s-19 32-17.57 51.93C191.11 256 221.52 288 256 288s64.83-32 67.79-71.24c1.48-19.74-4.8-38.14-17.68-51.82C293.39 151.44 275.59 144 256 144z" fill="currentColor"/>
</symbol>

<symbol id="lock" viewBox="0 0 512 512">
<title>Lock Closed</title>
<path d="M336 208v-95a80 80 0 00-160 0v95" fill="none" stroke="currentColor" stroke-linecap="round" stroke-linejoin="round" stroke-width="32"/><rect x="96" y="208" width="320" height="272" rx="48" ry="48" fill="none" stroke="currentColor" stroke-linecap="round" stroke-linejoin="round" stroke-width="32"/>
</symbol>

<symbol id="close" viewBox="0 0 512 512">
<title>Close</title>
<path fill="none" stroke="currentColor" stroke-linecap="round" stroke-linejoin="round" stroke-width="32" d="M368 368L144 144M368 144L144 368"/>
</symbol>

<symbol id="options" viewBox="0 0 512 512">
<title>Options</title>
<path fill="none" stroke="currentColor" stroke-linecap="round" stroke-linejoin="round" stroke-width="32" d="M368 128h80M64 128h240M368 384h80M64 384h240M208 256h240M64 256h80"/>
<circle cx="336" cy="128" r="32" fill="none" stroke="currentColor" stroke-linecap="round" stroke-linejoin="round" stroke-width="32"/>
<circle cx="176" cy="256" r="32" fill="none" stroke="currentColor" stroke-linecap="round" stroke-linejoin="round" stroke-width="32"/>
<circle cx="336" cy="384" r="32" fill="none" stroke="currentColor" stroke-linecap="round" stroke-linejoin="round" stroke-width="32"/>
</symbol>

<symbol id="key" viewBox="0 0 512 512">
<title>Key</title>
<path d="M218.1 167.17c0 13 0 25.6 4.1 37.4-43.1 50.6-156.9 184.3-167.5 194.5a20.17 20.17 0 00-6.7 15c0 8.5 5.2 16.7 9.6 21.3 6.6 6.9 34.8 33 40 28 15.4-15 18.5-19 24.8-25.2 9.5-9.3-1-28.3 2.3-36s6.8-9.2 12.5-10.4 15.8 2.9 23.7 3c8.3.1 12.8-3.4 19-9.2 5-4.6 8.6-8.9 8.7-15.6.2-9-12.8-20.9-3.1-30.4s23.7 6.2 34 5 22.8-15.5 24.1-21.6-11.7-21.8-9.7-30.7c.7-3 6.8-10 11.4-11s25 6.9 29.6 5.9c5.6-1.2 12.1-7.1 17.4-10.4 15.5 6.7 29.6 9.4 47.7 9.4 68.5 0 124-53.4 124-119.2S408.5 48 340 48s-121.9 53.37-121.9 119.17zM400 144a32 32 0 11-32-32 32 32 0 0132 32z" fill="none" stroke="currentColor" stroke-linejoin="round" stroke-width="32"/>
</symbol>

<symbol id="trash" viewBox="0 0 512 512">
<title>Trash</title>
<path d="M112 112l20 320c.95 18.49 14.4 32 32 32h184c17.67 0 30.87-13.51 32-32l20-320" fill="none" stroke="currentColor" stroke-linecap="round" stroke-linejoin="round" stroke-width="32"/>
<path stroke="currentColor" stroke-linecap="round" stroke-miterlimit="10" stroke-width="32" d="M80 112h352"/>
<path d="M192 112V72h0a23.93 23.93 0 0124-24h80a23.93 23.93 0 0124 24h0v40M256 176v224M184 176l8 224M328 176l-8 224" fill="none" stroke="currentColor" stroke-linecap="round" stroke-linejoin="round" stroke-width="32"/>
</symbol>

<symbol id="create" viewBox="0 0 512 512">
<title>Create</title>
<path d="M384 224v184a40 40 0 01-40 40H104a40 40 0 01-40-40V168a40 40 0 0140-40h167.48" fill="none" stroke="currentColor" stroke-linecap="round" stroke-linejoin="round" stroke-width="32"/>
<path d="M459.94 53.25a16.06 16.06 0 00-23.22-.56L424.35 65a8 8 0 000 11.31l11.34 11.32a8 8 0 0011.34 0l12.06-12c6.1-6.09 6.67-16.01.85-22.38zM399.34 90L218.82 270.2a9 9 0 00-2.31 3.93L208.16 299a3.91 3.91 0 004.86 4.86l24.85-8.35a9 9 0 003.93-2.31L422 112.66a9 9 0 000-12.66l-9.95-10a9 9 0 00-12.71 0z" fill="currentColor"/>
</symbol>

<symbol id="chevron-back" viewBox="0 0 512 512">
<title>Chevron Back</title>
<path fill="none" stroke="currentColor" stroke-linecap="round" stroke-linejoin="round" stroke-width="48" d="M328 112L184 256l144 144"/>
</symbol>

<symbol id="chevron-forward" viewBox="0 0 512 512">
<title>Chevron Forward</title>
<path fill="none" stroke="currentColor" stroke-linecap="round" stroke-linejoin="round" stroke-width="48" d="M184 112l144 144-144 144"/>
</symbol>

<def>
	<linearGradient id="grad1" x1="0" x2="1" y1="0" y2="0">
		<stop offset="0%" stop-color="#71B280"/>
		<stop offset="100%" stop-color="#134E5E"/>
	</linearGradient>
</def>
</svg>
